<?xml version="1.0" encoding="utf-8"?>
<!-- Generator: Adobe Illustrator 25.4.1, SVG Export Plug-In . SVG Version: 6.00 Build 0)  -->
<svg version="1.1" id="Слой_1" xmlns="http://www.w3.org/2000/svg" xmlns:xlink="http://www.w3.org/1999/xlink" x="0px" y="0px"
	 viewBox="0 0 419.54 98.86" style="enable-background:new 0 0 419.54 98.86;" xml:space="preserve">
<style type="text/css">
	.st0{fill:#040E1E;}
	.st1{display:none;}
	.st2{display:inline;}
	.st3{display:inline;fill:#040E1E;}
</style>
<g>
	<g>
		<path class="st0" d="M161.12,61.21v9.45h-39.4V19.77h38.45v9.45h-26.75v11.05h23.63v9.16h-23.63v11.78H161.12z"/>
		<path class="st0" d="M216.8,70.66l-0.07-30.53l-14.97,25.15h-5.31l-14.9-24.5v29.88H170.5V19.77h9.74l19.05,31.62l18.75-31.62
			h9.67l0.15,50.89H216.8z"/>
		<path class="st0" d="M239.92,19.77h11.78v50.89h-11.78V19.77z"/>
		<path class="st0" d="M296.18,70.66l-9.81-14.17h-0.58h-10.25v14.17h-11.78V19.77h22.03c4.51,0,8.42,0.75,11.74,2.25
			c3.32,1.5,5.88,3.63,7.67,6.4c1.79,2.76,2.69,6.03,2.69,9.81s-0.91,7.04-2.73,9.78s-4.4,4.83-7.74,6.29l11.41,16.36H296.18z
			 M293.2,31.66c-1.84-1.53-4.53-2.29-8.07-2.29h-9.6v17.74h9.6c3.54,0,6.23-0.77,8.07-2.33c1.84-1.55,2.76-3.73,2.76-6.54
			C295.96,35.38,295.04,33.18,293.2,31.66z"/>
		<path class="st0" d="M350.7,59.75h-23.62l-4.51,10.9H310.5l22.68-50.89h11.63l22.75,50.89H355.2L350.7,59.75z M346.99,50.81
			l-8.07-19.48l-8.07,19.48H346.99z"/>
		<path class="st0" d="M419.54,19.77v50.89h-9.67L384.5,39.77v30.89h-11.63V19.77h9.74l25.3,30.9v-30.9L419.54,19.77L419.54,19.77z"
			/>
	</g>
	<g>
		<g>
			<rect class="st0" width="79.08" height="19.77"/>
		</g>
		<g>
			<rect y="39.54" class="st0" width="79.08" height="19.77"/>
		</g>
		<g>
			<rect y="79.09" class="st0" width="79.08" height="19.77"/>
		</g>
	</g>
</g>
<g class="st1">
	<g class="st2">
		<path class="st0" d="M31.82,129.69v9H-5.7V90.23h36.62v9H5.44v10.52h22.5v8.72H5.44v11.22L31.82,129.69L31.82,129.69z"/>
		<path class="st0" d="M84.85,138.69l-0.07-29.08l-14.26,23.95h-5.05l-14.19-23.33v28.45H40.76V90.23h9.28l18.14,30.12l17.86-30.12
			h9.21l0.14,48.46H84.85z"/>
		<path class="st0" d="M106.87,90.23h11.22v48.46h-11.22V90.23z"/>
		<path class="st0" d="M160.45,138.69l-9.35-13.5h-0.55h-9.76v13.5h-11.21V90.23h20.98c4.29,0,8.02,0.72,11.18,2.15
			c3.16,1.43,5.6,3.46,7.3,6.09c1.71,2.63,2.56,5.75,2.56,9.35s-0.87,6.7-2.6,9.31s-4.19,4.6-7.37,5.99l10.87,15.58h-12.05V138.69z
			 M157.61,101.55c-1.75-1.45-4.32-2.18-7.68-2.18h-9.14v16.89h9.14c3.37,0,5.93-0.74,7.68-2.22s2.63-3.55,2.63-6.23
			C160.24,105.09,159.37,103,157.61,101.55z"/>
		<path class="st0" d="M212.37,128.31h-22.5l-4.29,10.38h-11.49l21.6-48.46h11.08l21.67,48.46h-11.77L212.37,128.31z M208.84,119.79
			l-7.68-18.55l-7.68,18.55H208.84z"/>
		<path class="st0" d="M277.93,90.23v48.46h-9.21l-24.16-29.42v29.42h-11.08V90.23h9.28l24.09,29.42V90.23H277.93z"/>
	</g>
	<g class="st2">
		<g>
			<rect x="98.46" y="-39.83" class="st0" width="75.32" height="18.83"/>
		</g>
		<g>
			<rect x="98.46" y="-2.17" class="st0" width="75.32" height="18.83"/>
		</g>
		<g>
			<rect x="98.46" y="35.48" class="st0" width="75.32" height="18.83"/>
		</g>
	</g>
</g>
<g class="st1">
	<rect x="1048.07" y="-35.13" class="st3" width="135.3" height="33.82"/>
	<rect x="1048.07" y="32.52" class="st3" width="135.3" height="33.82"/>
	<rect x="1048.07" y="100.17" class="st3" width="135.3" height="33.82"/>
</g>
</svg>
